<?xml version="1.0" standalone="no"?>
<!DOCTYPE svg PUBLIC "-//W3C//DTD SVG 20010904//EN"
 "http://www.w3.org/TR/2001/REC-SVG-20010904/DTD/svg10.dtd">
<svg version="1.0" xmlns="http://www.w3.org/2000/svg"
 width="512.000000pt" height="512.000000pt" viewBox="0 0 512.000000 512.000000"
 preserveAspectRatio="xMidYMid meet">
<metadata>
Created by potrace 1.14, written by Peter Selinger 2001-2017
</metadata>
<g transform="translate(0.000000,512.000000) scale(0.100000,-0.100000)"
fill="#000000" stroke="none">
<path d="M2787 5083 c-2 -1 -30 -5 -63 -8 -72 -5 -204 -38 -261 -65 -24 -11
-47 -20 -53 -20 -5 0 -10 -4 -10 -9 0 -5 -10 -11 -23 -15 -18 -4 -86 -45 -132
-78 -53 -39 -137 -118 -182 -170 l-31 -36 -21 24 c-12 13 -21 27 -21 30 0 3
-6 11 -12 18 -7 8 -20 24 -28 36 -15 23 -55 76 -87 118 -26 34 -88 63 -136 64
-58 1 -97 -5 -97 -15 0 -4 -5 -5 -10 -2 -11 7 -112 -36 -134 -57 -7 -7 -24
-20 -36 -28 -66 -45 -108 -83 -148 -137 -12 -16 -30 -24 -62 -26 -226 -22
-433 -121 -591 -283 -35 -37 -72 -74 -81 -82 -10 -9 -18 -22 -18 -29 0 -7 -4
-13 -9 -13 -14 0 -113 -144 -149 -215 -39 -78 -81 -200 -89 -261 -13 -96 -8
-312 11 -400 11 -52 40 -160 46 -174 4 -8 27 -54 50 -102 23 -49 46 -88 51
-88 5 0 9 -5 9 -10 0 -28 139 -148 154 -133 3 4 6 1 6 -5 0 -7 3 -11 8 -11 4
1 26 -2 50 -6 32 -6 42 -12 40 -24 -2 -9 -10 -16 -18 -16 -21 -1 -62 -16 -77
-29 -32 -29 -43 -36 -53 -36 -5 0 -10 -3 -10 -7 0 -5 -18 -26 -39 -49 -64 -66
-170 -258 -174 -314 -1 -11 -4 -20 -7 -20 -6 0 -33 -107 -44 -170 -3 -14 -5
-25 -6 -25 -12 0 -18 -257 -6 -273 5 -7 7 -15 4 -18 -5 -5 26 -159 32 -159 1
0 3 -7 5 -15 9 -47 151 -300 184 -330 25 -22 -1 -26 -161 -26 -93 1 -173 -1
-176 -4 -4 -3 -8 -11 -10 -18 -3 -16 58 -155 70 -160 5 -2 8 -8 8 -14 0 -5 7
-16 15 -25 8 -8 12 -19 9 -25 -4 -7 -2 -8 4 -4 7 4 12 2 12 -3 0 -11 19 -37
52 -72 9 -9 14 -20 11 -23 -4 -3 -1 -6 5 -6 7 0 12 -5 12 -11 0 -7 8 -19 18
-28 10 -9 25 -27 34 -40 22 -31 156 -178 192 -210 16 -14 34 -32 40 -39 14
-16 27 -29 74 -70 20 -19 51 -46 67 -61 57 -51 170 -138 245 -187 88 -58 260
-149 260 -137 0 4 4 3 8 -3 4 -6 39 -21 77 -35 39 -13 72 -26 75 -29 3 -3 19
-6 35 -8 45 -4 59 -7 73 -16 6 -4 12 -3 12 3 0 7 8 7 26 1 28 -11 187 -14 197
-3 4 3 22 8 39 10 18 2 43 4 56 6 12 1 22 5 22 10 0 4 9 7 19 7 11 0 23 4 26
10 3 5 15 10 25 10 10 0 25 7 34 15 8 8 20 15 26 15 6 0 18 6 25 12 30 27 44
38 50 38 14 0 125 108 164 160 14 19 33 43 42 53 9 10 25 35 35 57 10 22 22
40 27 40 4 0 7 4 7 9 0 5 5 22 11 38 7 19 12 24 18 14 5 -7 10 -12 12 -10 4 2
67 -16 99 -28 8 -4 18 -7 22 -7 3 -1 9 -4 13 -8 4 -4 13 -4 20 -2 7 3 16 0 20
-5 3 -6 10 -9 13 -7 4 2 29 0 56 -5 38 -7 58 -18 93 -54 24 -25 46 -45 49 -45
4 0 16 -11 28 -23 75 -84 321 -188 429 -182 15 1 27 -2 27 -8 0 -5 6 -5 13 2
8 6 17 8 21 4 9 -9 36 -13 36 -5 0 4 19 7 43 8 58 1 134 13 182 30 22 7 47 14
55 14 8 0 28 7 44 15 15 8 32 15 37 15 14 0 177 77 229 108 25 14 47 27 50 27
15 3 80 48 80 57 0 5 4 7 8 4 5 -3 20 5 34 17 14 12 36 29 49 37 12 8 30 22
38 30 9 8 29 21 43 29 15 8 25 17 23 21 -3 5 1 10 8 13 6 2 16 6 21 8 41 17
466 444 466 468 0 3 16 23 35 43 19 20 35 41 35 47 0 5 9 16 20 24 11 8 17 17
14 20 -4 4 1 9 10 13 9 3 16 12 16 20 0 8 5 14 12 14 6 0 8 3 5 7 -4 3 1 16
12 27 33 36 99 175 94 196 -6 23 4 22 -223 20 -246 -3 -284 -4 -297 -13 -8 -5
-13 -4 -13 3 0 6 -5 8 -10 5 -6 -4 -54 -9 -108 -11 -136 -7 -207 -12 -207 -14
0 -2 -139 -12 -182 -13 -18 -1 -33 -5 -33 -10 0 -4 -4 -6 -9 -2 -5 3 -7 18 -4
33 7 36 6 181 -1 211 -9 39 1 41 66 12 51 -24 71 -27 127 -24 78 4 98 7 131
21 14 5 44 18 68 27 23 9 42 21 42 26 0 5 6 9 13 9 7 0 27 10 44 23 17 12 42
29 55 37 38 25 206 198 236 243 15 23 32 47 38 54 6 6 17 26 24 45 8 18 17 35
20 38 9 6 52 128 56 155 1 11 3 22 5 25 1 3 3 10 4 15 1 6 5 21 8 35 31 124
37 440 11 510 -3 8 -8 31 -10 50 -8 61 -22 103 -74 215 -48 102 -120 203 -205
284 -41 39 -75 69 -75 66 0 -3 -11 4 -25 17 -36 34 -53 48 -60 48 -4 0 -25 13
-48 29 -83 57 -176 94 -264 107 -71 11 -170 6 -179 -8 -3 -4 -10 -8 -16 -8 -6
0 -8 13 -3 38 6 34 17 153 16 177 -1 24 -18 123 -27 160 -1 6 -4 21 -7 35 -17
90 -88 255 -154 360 -38 59 -219 244 -232 236 -4 -3 -14 4 -21 15 -8 10 -20
19 -27 19 -7 0 -13 5 -13 10 0 6 -7 10 -15 10 -8 0 -15 5 -15 11 0 5 -4 8 -9
4 -5 -3 -15 0 -23 7 -15 15 -145 78 -168 82 -8 2 -28 8 -45 15 -31 13 -128 35
-205 46 -49 8 -208 14 -213 8z m-2027 -2203 c0 -5 -4 -10 -10 -10 -5 0 -10 5
-10 10 0 6 5 10 10 10 6 0 10 -4 10 -10z m30 6 c0 -3 -4 -8 -10 -11 -5 -3 -10
-1 -10 4 0 6 5 11 10 11 6 0 10 -2 10 -4z"/>
</g>
</svg>
